<svg xmlns="http://www.w3.org/2000/svg" width="49.057" height="41.057" viewBox="0 0 49.057 41.057">
  <g id="Buttons" transform="translate(-1637.18 -1445.592)" opacity="0.6">
    <g id="Rectangle_22235" data-name="Rectangle 22235" transform="translate(1637.18 1445.592)" fill="none" stroke="#24242b" stroke-width="1">
      <rect width="49.057" height="41.057" rx="8" stroke="none"/>
      <rect x="0.5" y="0.5" width="48.057" height="40.057" rx="7.5" fill="none"/>
    </g>
    <path id="Icon_ionic-logo-whatsapp" data-name="Icon ionic-logo-whatsapp" d="M10.933,2.25A8.341,8.341,0,0,0,2.56,10.559a8.223,8.223,0,0,0,1.2,4.29L2.25,19.307l4.636-1.473a8.388,8.388,0,0,0,12.421-7.275A8.341,8.341,0,0,0,10.933,2.25ZM15.1,13.714a2.163,2.163,0,0,1-1.481.955c-.393.021-.4.3-2.545-.626a8.736,8.736,0,0,1-3.53-3.338,4.106,4.106,0,0,1-.79-2.226,2.373,2.373,0,0,1,.815-1.741.82.82,0,0,1,.58-.244c.169,0,.278-.005.4,0s.312-.026.474.405.55,1.491.6,1.6a.388.388,0,0,1,0,.372,1.454,1.454,0,0,1-.227.346c-.112.12-.235.268-.335.36s-.227.212-.11.429a6.407,6.407,0,0,0,1.134,1.513,5.842,5.842,0,0,0,1.679,1.116c.21.114.335.1.465-.035s.557-.6.708-.806.292-.166.485-.089,1.224.63,1.434.744.35.172.4.263A1.758,1.758,0,0,1,15.1,13.714Z" transform="translate(1650.93 1455.342)" fill="#24242b"/>
  </g>
</svg>
