<svg id="Group_76640" data-name="Group 76640" xmlns="http://www.w3.org/2000/svg" width="212.211" height="43.167" viewBox="0 0 212.211 43.167">
  <path id="Path_236" data-name="Path 236" d="M37.607,10.6c1.785-2.107,2.575-3.084,2.406-3.615A1.838,1.838,0,0,0,38.842,6a2.818,2.818,0,0,0-2.058-.1,7.152,7.152,0,0,0-1.01,1.059l-.565.636h0c-.374-.374-.749-.749-1.123-1.059A19.2,19.2,0,0,0,24.4,2.04,5.945,5.945,0,0,0,19.19.071,5.719,5.719,0,0,0,15.3,2.691,21.546,21.546,0,0,0,5.7,8.8h0a4.435,4.435,0,0,0-2.68.494,1.37,1.37,0,0,0-.79.88c-.041.251.06.644,1.063,1.789h0a21.217,21.217,0,0,0-3.144,13.7A19.241,19.241,0,0,0,10.822,40.824a23.627,23.627,0,0,0,22.029-.771h0a1.2,1.2,0,0,0,.468-1.594l-.082-.183c-1.123-2.485-4.491-10.053-2.62-16.954.831-2.889,3.076-5.969,5.038-8.38h0a18.821,18.821,0,0,1,2.994,10.876,17.216,17.216,0,0,1-3.428,9.731.412.412,0,0,0-.094.288.453.453,0,0,0,.03.127l.221.475a.408.408,0,0,0,.4.24.415.415,0,0,0,.288-.153h0A20.7,20.7,0,0,0,37.607,10.6Zm-24.5,16.325a39.035,39.035,0,0,0-.5,11.508h0a19.716,19.716,0,0,1-3.99-2.683A19.151,19.151,0,0,1,2.333,24.709a17.77,17.77,0,0,1,1.9-11.737h0c.749.778,1.639,1.669,2.579,2.62A59.538,59.538,0,0,1,13,22.3c.749,1.063.505,2.41.127,4.645M33.131,9.806c-4.24,4.263-8.234,6.576-11.879,6.849a14.814,14.814,0,0,1-8.81-2.481A33.863,33.863,0,0,1,6.828,9.708L6.709,9.6h0a17.287,17.287,0,0,1,7.646-4.746h0a8.739,8.739,0,0,0-.176,3.615A8.163,8.163,0,0,0,17.3,13.818a5.475,5.475,0,0,0,7.908-1.243A8.166,8.166,0,0,0,26.544,6.52a9.4,9.4,0,0,0-.273-1.2h0a19.319,19.319,0,0,1,5.816,3.5A13.6,13.6,0,0,1,33.131,9.806Z" transform="translate(-0.015 -0.012)" fill="#da291c"/>
  <path id="Path_237" data-name="Path 237" d="M185.524,45.1h-3.481v3.926a1.39,1.39,0,0,0,1.471,1.534,4.15,4.15,0,0,0,2.01-.558v2.171a6.759,6.759,0,0,1-2.773.606c-1.991,0-3.709-.913-3.709-3.585V45.08h-1.366v-.543l4-4.491h.374V43.04h3.481Zm41.094,3.177c-2.032.977-3.275,1.553-5.12,1.553-2.942,0-5.038-1.8-5.038-4.33s2.118-4.289,5.12-4.289a9.854,9.854,0,0,1,4.865,1.448V39.529a9.959,9.959,0,0,0-5.12-1.246c-5.412,0-8.5,3.526-8.5,7.3,0,3.645,2.74,7.212,8.234,7.212a10.958,10.958,0,0,0,5.554-1.411ZM153.3,51.356l-2.137,1.415a2.856,2.856,0,0,1-1.871-1.179,3.743,3.743,0,0,1-2.829,1.179c-3.23,0-4.536-2.878-4.536-4.955,0-2.3,1.407-4.97,4.618-4.97a4.843,4.843,0,0,1,2.508.644V43.04h2.994v6.243C152.032,50.151,152.2,51.124,153.3,51.356Zm-4.267-5.947a3.215,3.215,0,0,0-1.74-.543c-1.7,0-2.279,1.8-2.279,3.174a2.33,2.33,0,0,0,2.335,2.59,2.41,2.41,0,0,0,1.684-.644Zm24.48,2.9h-6.86c.1,1.7,1.265,2.695,3.155,2.695a5.6,5.6,0,0,0,3.537-1.366v1.871a6.909,6.909,0,0,1-4.252,1.261c-3.368,0-5.532-1.946-5.532-4.936a4.817,4.817,0,0,1,5.034-4.989C171.359,42.86,173.657,44.829,173.511,48.309Zm-2.53-1.576a2.073,2.073,0,1,0-4.147,0Zm37.347,1.583h-6.86c.1,1.7,1.265,2.695,3.148,2.695a5.623,5.623,0,0,0,3.548-1.366v1.871a6.928,6.928,0,0,1-4.267,1.276c-3.368,0-5.528-1.946-5.528-4.936a4.817,4.817,0,0,1,5.034-4.989C206.172,42.868,208.474,44.836,208.328,48.317Zm-2.654-1.576a2.073,2.073,0,1,0-4.147,0ZM190.165,38.47h-2.994V52.6h2.994V46.947a1.871,1.871,0,0,1,2.01-1.871c.932,0,1.553.666,1.553,2.1V52.6h2.994V46.513a3.347,3.347,0,0,0-3.507-3.645,3.765,3.765,0,0,0-3.065,1.594h0Zm41.749,0H228.92V52.6h2.994V46.947a1.871,1.871,0,0,1,2.01-1.871c.932,0,1.553.666,1.553,2.1V52.6h2.994V46.513a3.347,3.347,0,0,0-3.507-3.645,3.743,3.743,0,0,0-3.066,1.595h0Zm-92.068.913a11.561,11.561,0,0,0-4.791-1.1c-3.271,0-5.386,1.621-5.386,4.064,0,5.075,7.19,4.229,7.19,6.55,0,.827-.722,1.3-2.07,1.3-1.557,0-2.8-.475-4.828-1.823v3.046a9.578,9.578,0,0,0,5.094,1.37c3.155,0,5.434-1.576,5.434-4.289,0-4.936-7.19-4.334-7.19-6.471,0-.7.8-1.156,2.07-1.156a11.09,11.09,0,0,1,4.491,1.261Zm102.09-1.1a1.646,1.646,0,1,0,.015,0Zm1.5,4.768H240.44V52.6h2.994Zm5.311-4.581H245.75V48.837c0,1.871.516,3.851,3.649,3.956l.954-2.178c-1.287-.243-1.6-.827-1.6-2.279Zm17.8,4.57H263.55V52.6h2.994V48.4c0-1.778.928-2.717,2.47-2.717a3.49,3.49,0,0,1,1.778.7l.846-2.65a3.272,3.272,0,0,0-1.987-.868,3.378,3.378,0,0,0-3.091,2.388Zm15.378,5.277h-6.86c.1,1.7,1.261,2.695,3.147,2.695a5.614,5.614,0,0,0,3.544-1.366v1.871a6.913,6.913,0,0,1-4.27,1.265c-3.368,0-5.532-1.946-5.532-4.936a4.817,4.817,0,0,1,5.034-4.989C279.763,42.868,282.065,44.836,281.922,48.317Zm-2.657-1.576a2.07,2.07,0,1,0-4.139,0Zm10.6-3.862a3.743,3.743,0,0,0-3.065,1.595V43.04h-2.994v9.574H286.8V46.921a1.89,1.89,0,0,1,2.01-1.849c.932,0,1.553.666,1.553,2.1v5.445h2.994V46.524A3.329,3.329,0,0,0,289.864,42.879ZM261.316,38.47h-2.994v4.993a5.614,5.614,0,0,0-2.493-.6c-2.732,0-4.637,2.028-4.637,4.951,0,2.859,1.9,4.974,4.491,4.974a3.922,3.922,0,0,0,2.654-.954v.749h2.994Zm-2.994,11.523a2.53,2.53,0,0,1-1.782.786c-1.411,0-2.3-1.16-2.3-2.9,0-1.9.887-2.994,2.4-2.994a3.294,3.294,0,0,1,1.677.558Zm-94.9-6.954h-3.189l-2.051,5.266-2.032-5.266h-2.934l4.061,9.559h1.838Z" transform="translate(-81.145 -23.957)" fill="#090707"/>
</svg>
