<svg xmlns="http://www.w3.org/2000/svg" width="157.478" height="59.511" viewBox="0 0 157.478 59.511">
  <path id="humanity-and-inclusion-handicap-international-logo-vector" d="M-56.5,193.513A2.812,2.812,0,0,1-59.3,190.7V171.043a2.812,2.812,0,0,1,2.809-2.809,2.812,2.812,0,0,1,2.809,2.809v5.618H-49.8V165.609a2.812,2.812,0,0,1,2.809-2.809,2.812,2.812,0,0,1,2.809,2.809v25.07a2.812,2.812,0,0,1-2.809,2.809,2.812,2.812,0,0,1-2.809-2.809v-8.4h-3.885v8.4a2.8,2.8,0,0,1-2.809,2.835m19.058,4.83a2.812,2.812,0,0,0,2.809-2.809V178.5a2.812,2.812,0,0,0-2.809-2.809,2.812,2.812,0,0,0-2.809,2.809v17.037a2.779,2.779,0,0,0,2.809,2.809m0-23.7a2.812,2.812,0,0,0,2.809-2.809v-.788a2.812,2.812,0,0,0-2.809-2.809,2.812,2.812,0,0,0-2.809,2.809v.788a2.779,2.779,0,0,0,2.809,2.809m12.338,15.8a2.8,2.8,0,0,0-3.675,1.549c-.053.105-4.62,11.235-7.718,16.407-2.231,3.754-6.274,8.243-12.758,8.243a13.7,13.7,0,0,1-9.792-4.069,14.253,14.253,0,0,1-4.148-9.923c-.1-6.379,0-23.941,0-24.124A2.818,2.818,0,0,0-66,175.689h-.026a2.812,2.812,0,0,0-2.809,2.809c0,.184-.1,17.824,0,24.256a19.945,19.945,0,0,0,5.8,13.808,19.337,19.337,0,0,0,13.808,5.749,18.288,18.288,0,0,0,10.4-3.15,24.265,24.265,0,0,0,7.193-7.849c3.281-5.513,7.875-16.669,8.085-17.142a2.863,2.863,0,0,0-1.549-3.728m44.206,10.71a.971.971,0,0,0-1-1.024.987.987,0,0,0-1,1.024,1,1,0,1,0,2,0m-3.491,0a2.5,2.5,0,1,1,2.494,2.573,2.419,2.419,0,0,1-2.494-2.573m-31.737-12.784a.113.113,0,0,0-.1-.105h-1.339a.113.113,0,0,0-.1.105v6.668a.113.113,0,0,0,.1.105h1.339a.113.113,0,0,0,.1-.105v-2.284c0-.735.394-1.129.919-1.129a.806.806,0,0,1,.866.893v2.494a.113.113,0,0,0,.1.1h1.365a.113.113,0,0,0,.105-.1v-3.045a1.649,1.649,0,0,0-1.733-1.89,1.873,1.873,0,0,0-1.654.866v-2.573Zm9.162,1.969a.113.113,0,0,0-.105-.1H-8.43a.113.113,0,0,0-.1.1v2.284c0,.735-.446,1.129-.919,1.129-.368,0-.709-.236-.709-.866v-2.52a.113.113,0,0,0-.105-.105h-1.391a.113.113,0,0,0-.105.105v3.045c0,1.208.63,1.89,1.628,1.89a2.035,2.035,0,0,0,1.68-.893v.656a.113.113,0,0,0,.105.1h1.286a.113.113,0,0,0,.105-.1ZM7.872,198.79a.113.113,0,0,0-.1-.1H6.428a.113.113,0,0,0-.105.1v2.284c0,.735-.368,1.129-.84,1.129-.368,0-.63-.236-.63-.866v-2.52a.113.113,0,0,0-.105-.105H3.383a.113.113,0,0,0-.105.105v3.045c0,1.208.6,1.89,1.6,1.89a1.787,1.787,0,0,0,1.523-.893v.656a.113.113,0,0,0,.105.1h1.26a.113.113,0,0,0,.105-.1V198.79ZM.784,195.036a.113.113,0,0,0,.105.105H2.228a.113.113,0,0,0,.1-.105V192.07a1.852,1.852,0,0,0-1.916-1.943,1.9,1.9,0,0,0-1.68.893,1.653,1.653,0,0,0-1.575-.893,1.817,1.817,0,0,0-1.628.866v-.63a.113.113,0,0,0-.1-.105H-5.884a.113.113,0,0,0-.105.105v4.7a.113.113,0,0,0,.105.105h1.339a.113.113,0,0,0,.105-.105v-2.284c0-.683.341-1.129.919-1.129a.861.861,0,0,1,.893.919v2.468a.113.113,0,0,0,.1.105h1.339a.113.113,0,0,0,.105-.105v-2.284c0-.683.341-1.129.919-1.129a.861.861,0,0,1,.893.919v2.494Zm4.331-1.916c-.341.053-.525.21-.525.446,0,.289.21.446.6.446a.934.934,0,0,0,1-.919v-.1Zm-1.89-2.048a2.566,2.566,0,0,1,2.284-.945c1.47,0,2.258.63,2.258,2.1v2.809a.113.113,0,0,1-.105.105H6.323a.113.113,0,0,1-.105-.105v-.525a1.614,1.614,0,0,1-1.444.735,1.541,1.541,0,0,1-1.654-1.523A1.557,1.557,0,0,1,4.7,192.175l1.339-.131c.158-.026.21-.079.21-.158v-.053c0-.21-.341-.394-.84-.394a1.5,1.5,0,0,0-1.129.394.124.124,0,0,1-.158.026l-.814-.63c-.105-.052-.131-.131-.079-.158m8.715,3.964a.113.113,0,0,0,.105.105h1.365a.113.113,0,0,0,.105-.105v-3.045c0-1.208-.6-1.89-1.68-1.89a1.981,1.981,0,0,0-1.628.866v-.63a.113.113,0,0,0-.105-.1H8.79a.113.113,0,0,0-.1.1v4.7a.113.113,0,0,0,.1.1h1.339a.113.113,0,0,0,.105-.1v-2.284c0-.735.368-1.129.893-1.129.473,0,.788.262.788.893v2.52Zm12.5,8.453a.113.113,0,0,0,.105.105H25.88a.113.113,0,0,0,.1-.105v-3.045c0-1.208-.551-1.89-1.628-1.89a1.753,1.753,0,0,0-1.523.866v-.63a.113.113,0,0,0-.1-.1H21.443a.113.113,0,0,0-.1.1v4.7a.113.113,0,0,0,.1.1h1.339a.113.113,0,0,0,.105-.1V201.2c0-.735.315-1.129.84-1.129.472,0,.709.262.709.893v2.52Zm-30.661,0a.113.113,0,0,0,.105.105h1.339a.113.113,0,0,0,.105-.105v-3.045c0-1.208-.551-1.89-1.628-1.89a1.753,1.753,0,0,0-1.523.866v-.63a.113.113,0,0,0-.105-.1H-9.218a.113.113,0,0,0-.105.1v4.7a.113.113,0,0,0,.105.1h1.339a.113.113,0,0,0,.105-.1V201.2c0-.735.315-1.129.84-1.129.473,0,.709.262.709.893v2.52Zm20.581-14.674a.919.919,0,1,1,.919.919.9.9,0,0,1-.919-.919m1.733,6.221a.113.113,0,0,1-.105.105H14.618a.113.113,0,0,1-.1-.105v-4.7a.113.113,0,0,1,.1-.1h1.339a.113.113,0,0,1,.1.1v4.7Zm-28.01,2.231a.9.9,0,0,1,.919-.919.9.9,0,0,1,.919.919.9.9,0,0,1-.919.919.9.9,0,0,1-.919-.919m1.68,6.221a.113.113,0,0,1-.1.105h-1.339a.113.113,0,0,1-.105-.105v-4.7a.113.113,0,0,1,.105-.1h1.339a.113.113,0,0,1,.1.1Zm12.6-6.668a.113.113,0,0,0-.105-.105H.915a.113.113,0,0,0-.105.105v6.668a.113.113,0,0,0,.105.105H2.254a.113.113,0,0,0,.105-.105Zm10.868.446a.919.919,0,1,1,.919.919.9.9,0,0,1-.919-.919m1.68,6.221a.113.113,0,0,1-.1.105H13.463a.113.113,0,0,1-.1-.105v-4.7a.113.113,0,0,1,.1-.1H14.8a.113.113,0,0,1,.1.1Zm5.381-8.427c.053,0,.079-.052.079-.1v-1.286a.113.113,0,0,0-.1-.1h-.026a2.86,2.86,0,0,1-.525.052c-.289,0-.446-.079-.446-.341v-1.706h1.076a.113.113,0,0,0,.105-.105V190.39a.113.113,0,0,0-.105-.105H19.264v-1.208a.113.113,0,0,0-.105-.105H17.821a.113.113,0,0,0-.105.105v1.208h-.735a.113.113,0,0,0-.1.105v1.076a.113.113,0,0,0,.1.105h.735v2.048c0,1.181.578,1.628,1.5,1.628.263-.053.683-.105,1.076-.184M-.686,200.5a.1.1,0,0,0,.079.026.136.136,0,0,0,.1-.053l.683-1.076c0-.026.026-.026.026-.053s-.026-.053-.026-.079a2.416,2.416,0,0,0-1.706-.683,2.425,2.425,0,0,0-2.52,2.573,2.425,2.425,0,0,0,2.52,2.573,2.369,2.369,0,0,0,1.706-.683.1.1,0,0,0,.026-.079c0-.026,0-.053-.026-.053L-.5,201.835a.136.136,0,0,0-.1-.053c-.026,0-.053.026-.079.026a1.163,1.163,0,0,1-.84.394.985.985,0,0,1-1.05-1.024.985.985,0,0,1,1.05-1.024.961.961,0,0,1,.84.341M-13,203.436c0,.026.026.026.026.053a.113.113,0,0,1-.1.1h-1.313c-.026,0-.053-.026-.079-.053l-.236-.315h0a2.555,2.555,0,0,1-1.575.473,2.08,2.08,0,0,1-1.628-.683,2.26,2.26,0,0,1-.5-1.47A2.253,2.253,0,0,1-17.25,199.5h0l-.026-.026a2.141,2.141,0,0,1-.263-2.205,1.68,1.68,0,0,1,1.549-.919,1.685,1.685,0,0,1,1.208.5,1.757,1.757,0,0,1,.446,1.208,2.008,2.008,0,0,1-1,1.706l-.131.1.814,1.181v-.026a3.347,3.347,0,0,0,.263-1.076c0-.053.053-.079.105-.079h1.1a.1.1,0,0,1,.079.026.1.1,0,0,1,.026.079V200a.285.285,0,0,1-.026.131,4.874,4.874,0,0,1-.735,2.153h0l.84,1.155m-2.993-5.749a.466.466,0,0,0-.446.473,1.178,1.178,0,0,0,.289.683h0c.026-.026.053-.026.079-.053.236-.158.525-.315.525-.683a.421.421,0,0,0-.446-.42m.525,4.41h0c-.341-.473-.709-1.024-1.05-1.523h0a1.109,1.109,0,0,0-.525.945.874.874,0,0,0,.866.866.963.963,0,0,0,.709-.289Zm24.728-.053c-.026,0-.026-.026-.053-.026a.136.136,0,0,0-.105.053l-.525.945c0,.026-.026.026-.026.053a.136.136,0,0,0,.053.1,3.167,3.167,0,0,0,1.943.551c1.339,0,2.048-.578,2.048-1.654a1.438,1.438,0,0,0-1.286-1.5c-.945-.21-1.05-.341-1.05-.446s.105-.236.394-.262a2.657,2.657,0,0,1,1.26.262c.026,0,.026.026.053.026a.136.136,0,0,0,.105-.053l.5-.919c0-.026.026-.026.026-.052a.136.136,0,0,0-.052-.105,3.232,3.232,0,0,0-1.733-.473c-1.286,0-2,.551-2,1.628a1.6,1.6,0,0,0,1.286,1.5c.919.236,1.05.289,1.05.473,0,.1-.105.21-.394.236a3.767,3.767,0,0,1-1.5-.341m14.07-4.935c.053,0,.079-.026.1-.079l2.94-6.668v-.053a.113.113,0,0,0-.105-.1H24.856c-.053,0-.079.026-.105.079l-1,2.284-1.024-2.284c-.026-.053-.052-.079-.1-.079H21.076a.113.113,0,0,0-.105.1v.053l1.969,4.016-1.129,2.546v.053a.113.113,0,0,0,.1.1h1.418Zm-135.27-8.715a.113.113,0,0,0-.1-.1h-1.365a.113.113,0,0,0-.1.1v6.641a.113.113,0,0,0,.105.1h1.365a.113.113,0,0,0,.1-.1v-2.258c0-.735.341-1.129.866-1.129.473,0,.761.262.761.893v2.494a.113.113,0,0,0,.105.105h1.365a.113.113,0,0,0,.1-.105v-3.019c0-1.208-.578-1.89-1.68-1.89a1.724,1.724,0,0,0-1.549.866v-2.6Zm25.962,3.649a.1.1,0,0,0,.079.026.136.136,0,0,0,.1-.053l.683-1.076c0-.026.026-.026.026-.053s-.026-.053-.026-.079a2.481,2.481,0,0,0-1.733-.683,2.446,2.446,0,0,0-2.546,2.573,2.446,2.446,0,0,0,2.546,2.573,2.369,2.369,0,0,0,1.706-.682.1.1,0,0,0,.026-.079c0-.026,0-.053-.026-.053l-.683-1.076a.136.136,0,0,0-.1-.053c-.026,0-.053.026-.079.026a1.163,1.163,0,0,1-.84.394.985.985,0,0,1-1.05-1.024.985.985,0,0,1,1.05-1.024,1.091,1.091,0,0,1,.866.341m-6.405-3.754a.113.113,0,0,1,.105.1v6.641a.113.113,0,0,1-.105.1h-1.339a.113.113,0,0,1-.1-.1v-.551a1.8,1.8,0,0,1-1.5.788c-1.208,0-2.021-1.05-2.021-2.573s.814-2.573,2-2.573a1.833,1.833,0,0,1,1.523.814v-2.546a.113.113,0,0,1,.1-.1h1.339m-2.441,5.434a.972.972,0,0,0,1-1.024.972.972,0,0,0-1-1.024.972.972,0,0,0-1,1.024.944.944,0,0,0,1,1.024m17.063.735a1.8,1.8,0,0,0,1.523.814c1.181,0,2-1.05,2-2.573,0-1.549-.814-2.573-2.021-2.573a1.717,1.717,0,0,0-1.47.788v-.551a.113.113,0,0,0-.105-.105h-1.339a.113.113,0,0,0-.105.105V197a.113.113,0,0,0,.105.1h1.339a.113.113,0,0,0,.105-.1v-2.546Zm2-1.759a.972.972,0,0,1-1,1.024.972.972,0,0,1-1-1.024.972.972,0,0,1,1-1.024.972.972,0,0,1,1,1.024m-14.989-4.778a.9.9,0,0,0-.919.919.9.9,0,0,0,.919.919.9.9,0,0,0,.919-.919.868.868,0,0,0-.919-.919m.788,2.441a.113.113,0,0,0-.1-.1h-1.365a.113.113,0,0,0-.105.1v4.673a.113.113,0,0,0,.105.1h1.365a.113.113,0,0,0,.1-.1Zm-9.555,4.673a.113.113,0,0,0,.105.105h1.365a.113.113,0,0,0,.105-.105v-3.019c0-1.208-.578-1.89-1.68-1.89a1.846,1.846,0,0,0-1.575.866v-.63a.113.113,0,0,0-.1-.1h-1.313a.113.113,0,0,0-.1.1v4.673a.113.113,0,0,0,.1.1h1.365a.113.113,0,0,0,.1-.1v-2.258c0-.735.341-1.129.866-1.129.473,0,.761.262.761.893Zm-6.589-1.89c-.341.052-.525.21-.525.446,0,.289.21.446.6.446a.934.934,0,0,0,1-.919v-.1Zm-1.89-2.074a2.58,2.58,0,0,1,2.284-.971c1.5,0,2.284.63,2.284,2.126v2.809a.113.113,0,0,1-.1.105H-104.9a.113.113,0,0,1-.1-.105v-.5a1.642,1.642,0,0,1-1.47.761,1.546,1.546,0,0,1-1.654-1.549,1.579,1.579,0,0,1,1.575-1.575l1.339-.131c.158-.026.21-.079.21-.158v-.053c0-.21-.368-.42-.84-.42a1.5,1.5,0,0,0-1.129.394c-.026.052-.1.052-.158.026l-.814-.63c-.079-.026-.1-.079-.053-.131m25.306,2.074c-.341.052-.525.21-.525.446,0,.289.21.446.6.446a.934.934,0,0,0,1-.919v-.1Zm-1.89-2.074A2.58,2.58,0,0,1-82.3,190.1c1.5,0,2.284.63,2.284,2.126v2.809a.113.113,0,0,1-.105.105h-1.365a.113.113,0,0,1-.1-.105v-.5a1.642,1.642,0,0,1-1.47.761,1.546,1.546,0,0,1-1.654-1.549,1.579,1.579,0,0,1,1.575-1.575l1.339-.131c.158-.026.21-.079.21-.158v-.053c0-.21-.368-.42-.84-.42a1.5,1.5,0,0,0-1.129.394c-.026.052-.1.052-.158.026l-.814-.63c-.079-.026-.1-.079-.052-.131m-4.41,10.054a.971.971,0,0,0-1-1.024.987.987,0,0,0-1,1.024.971.971,0,0,0,1,1.024.957.957,0,0,0,1-1.024m-3.518,0a2.425,2.425,0,0,1,2.52-2.573,2.425,2.425,0,0,1,2.52,2.573,2.425,2.425,0,0,1-2.52,2.573,2.425,2.425,0,0,1-2.52-2.573m-32.84,2.363a.113.113,0,0,0,.1.105h1.365a.113.113,0,0,0,.1-.105V200.47c0-1.208-.578-1.89-1.68-1.89a1.846,1.846,0,0,0-1.575.866v-.63a.113.113,0,0,0-.1-.105h-1.313a.113.113,0,0,0-.1.105v4.673a.113.113,0,0,0,.1.1h1.365a.113.113,0,0,0,.105-.1V201.2c0-.735.341-1.129.866-1.129.473,0,.761.262.761.893Zm18.979,0a.113.113,0,0,0,.105.105h1.365a.113.113,0,0,0,.1-.105V200.47c0-1.208-.577-1.89-1.68-1.89a1.846,1.846,0,0,0-1.575.866v-.63a.113.113,0,0,0-.105-.105h-1.313a.113.113,0,0,0-.1.105v4.673a.113.113,0,0,0,.1.1h1.365a.113.113,0,0,0,.1-.1V201.2c0-.735.341-1.129.866-1.129.473,0,.761.262.761.893v2.52Zm22.654,0a.113.113,0,0,0,.105.105h1.365a.113.113,0,0,0,.1-.105V200.47c0-1.208-.578-1.89-1.68-1.89a1.846,1.846,0,0,0-1.575.866v-.63a.113.113,0,0,0-.1-.105h-1.313a.113.113,0,0,0-.1.105v4.673a.113.113,0,0,0,.1.1h1.365a.113.113,0,0,0,.105-.1V201.2c0-.735.341-1.129.866-1.129.473,0,.761.262.761.893Zm-47.383-6.2a.9.9,0,0,1,.919-.919.9.9,0,0,1,.919.919.9.9,0,0,1-.919.919.9.9,0,0,1-.919-.919m1.706,6.2a.113.113,0,0,1-.1.105h-1.365a.113.113,0,0,1-.1-.105v-4.673a.113.113,0,0,1,.1-.105h1.365a.113.113,0,0,1,.1.105Zm34.572-6.2a.9.9,0,0,1,.919-.919.9.9,0,0,1,.919.919.9.9,0,0,1-.919.919.9.9,0,0,1-.919-.919m1.706,6.2a.113.113,0,0,1-.105.105h-1.365a.113.113,0,0,1-.1-.105v-4.673a.113.113,0,0,1,.1-.105h1.365a.113.113,0,0,1,.105.105Zm18.638-6.641a.113.113,0,0,0-.105-.105h-1.365a.113.113,0,0,0-.1.105v6.641a.113.113,0,0,0,.1.105h1.365a.113.113,0,0,0,.105-.105Zm-45.335,6.641c.053,0,.079-.052.079-.1V202.1a.113.113,0,0,0-.1-.1h-.026a2.9,2.9,0,0,1-.551.052c-.289,0-.446-.079-.446-.341V200h1.076a.113.113,0,0,0,.1-.105v-1.076a.113.113,0,0,0-.1-.105h-1.076V197.5a.113.113,0,0,0-.1-.1h-1.365a.113.113,0,0,0-.105.1v1.208h-.735a.113.113,0,0,0-.105.105v1.076a.113.113,0,0,0,.105.105h.735v2.021c0,1.155.578,1.628,1.523,1.628a4.628,4.628,0,0,0,1.1-.158m24.2,0c.053,0,.079-.052.079-.1V202.1a.113.113,0,0,0-.105-.1h-.026a2.9,2.9,0,0,1-.551.052c-.289,0-.446-.079-.446-.341V200h1.076a.113.113,0,0,0,.105-.105v-1.076a.113.113,0,0,0-.105-.105h-1.076V197.5a.113.113,0,0,0-.1-.1h-1.365a.113.113,0,0,0-.1.1v1.208h-.735a.113.113,0,0,0-.1.105v1.076a.113.113,0,0,0,.1.105h.735v2.021c0,1.155.577,1.628,1.523,1.628a4.628,4.628,0,0,0,1.1-.158m-6.563-1.916c-.341.053-.525.21-.525.446,0,.289.21.446.6.446a.934.934,0,0,0,1-.919v-.105Zm-1.89-2.074a2.58,2.58,0,0,1,2.284-.971c1.5,0,2.284.63,2.284,2.126v2.809a.113.113,0,0,1-.105.1h-1.365a.113.113,0,0,1-.1-.1v-.525a1.642,1.642,0,0,1-1.47.761,1.546,1.546,0,0,1-1.654-1.549,1.579,1.579,0,0,1,1.575-1.575l1.339-.131c.158-.026.21-.079.21-.158v-.053c0-.21-.368-.42-.84-.42a1.5,1.5,0,0,0-1.129.394c-.026.053-.1.053-.158.026l-.814-.63c-.079.026-.105-.053-.053-.105m24.544,2.074c-.341.053-.525.21-.525.446,0,.289.21.446.6.446a.934.934,0,0,0,1-.919v-.105Zm-1.916-2.074a2.58,2.58,0,0,1,2.284-.971c1.5,0,2.284.63,2.284,2.126v2.809a.113.113,0,0,1-.1.1h-1.365a.113.113,0,0,1-.105-.1v-.525a1.642,1.642,0,0,1-1.47.761,1.546,1.546,0,0,1-1.654-1.549,1.579,1.579,0,0,1,1.575-1.575l1.339-.131c.158-.026.21-.079.21-.158v-.053c0-.21-.368-.42-.84-.42a1.5,1.5,0,0,0-1.129.394c-.026.053-.105.053-.158.026l-.814-.63c-.079.026-.079-.053-.053-.105m-35.15.289a.884.884,0,0,1,.945.761h-2.021a1.034,1.034,0,0,1,1.076-.761m1.549,2.31c-.026-.053-.053-.079-.105-.079-.026,0-.052,0-.052.026a2.042,2.042,0,0,1-1.208.341,1.368,1.368,0,0,1-1.155-.735v-.026h3.465v-.42a2.389,2.389,0,0,0-2.494-2.651,2.459,2.459,0,0,0-2.6,2.573,2.535,2.535,0,0,0,2.73,2.625,3.689,3.689,0,0,0,1.89-.446.136.136,0,0,0,.053-.105v-.053Zm4.725-1.785a.144.144,0,0,0,.131-.079v-1.523c0-.052-.026-.1-.079-.1a1.785,1.785,0,0,0-.394-.053,1.387,1.387,0,0,0-1.339.971v-.735a.113.113,0,0,0-.105-.1h-1.286a.113.113,0,0,0-.105.1v4.673a.113.113,0,0,0,.105.1h1.339a.113.113,0,0,0,.1-.1v-2.048c0-.866.42-1.181,1.129-1.181a1.528,1.528,0,0,1,.5.079" transform="translate(131.1 -162.8)" fill="#007fc8"/>
</svg>
