<svg xmlns="http://www.w3.org/2000/svg" width="40.69" height="43.167" viewBox="0 0 40.69 43.167">
  <path id="Path_236" data-name="Path 236" d="M37.607,10.6c1.785-2.107,2.575-3.084,2.406-3.615A1.838,1.838,0,0,0,38.842,6a2.818,2.818,0,0,0-2.058-.1,7.152,7.152,0,0,0-1.01,1.059l-.565.636h0c-.374-.374-.749-.749-1.123-1.059A19.2,19.2,0,0,0,24.4,2.04,5.945,5.945,0,0,0,19.19.071,5.719,5.719,0,0,0,15.3,2.691,21.546,21.546,0,0,0,5.7,8.8h0a4.435,4.435,0,0,0-2.68.494,1.37,1.37,0,0,0-.79.88c-.041.251.06.644,1.063,1.789h0a21.217,21.217,0,0,0-3.144,13.7A19.241,19.241,0,0,0,10.822,40.824a23.627,23.627,0,0,0,22.029-.771h0a1.2,1.2,0,0,0,.468-1.594l-.082-.183c-1.123-2.485-4.491-10.053-2.62-16.954.831-2.889,3.076-5.969,5.038-8.38h0a18.821,18.821,0,0,1,2.994,10.876,17.216,17.216,0,0,1-3.428,9.731.412.412,0,0,0-.094.288.453.453,0,0,0,.03.127l.221.475a.408.408,0,0,0,.4.24.415.415,0,0,0,.288-.153h0A20.7,20.7,0,0,0,37.607,10.6Zm-24.5,16.325a39.035,39.035,0,0,0-.5,11.508h0a19.716,19.716,0,0,1-3.99-2.683A19.151,19.151,0,0,1,2.333,24.709a17.77,17.77,0,0,1,1.9-11.737h0c.749.778,1.639,1.669,2.579,2.62A59.538,59.538,0,0,1,13,22.3c.749,1.063.505,2.41.127,4.645M33.131,9.806c-4.24,4.263-8.234,6.576-11.879,6.849a14.814,14.814,0,0,1-8.81-2.481A33.863,33.863,0,0,1,6.828,9.708L6.709,9.6h0a17.287,17.287,0,0,1,7.646-4.746h0a8.739,8.739,0,0,0-.176,3.615A8.163,8.163,0,0,0,17.3,13.818a5.475,5.475,0,0,0,7.908-1.243A8.166,8.166,0,0,0,26.544,6.52a9.4,9.4,0,0,0-.273-1.2h0a19.319,19.319,0,0,1,5.816,3.5A13.6,13.6,0,0,1,33.131,9.806Z" transform="translate(-0.015 -0.012)" fill="#da291c"/>
</svg>
